<svg width="17" height="17" viewBox="0 0 17 17" fill="none" xmlns="http://www.w3.org/2000/svg">
<path d="M7.3877 2.22131L8.12481 1.4842C8.43691 1.17209 8.9416 1.17209 9.25039 1.4842L15.7051 7.93557C16.0172 8.24768 16.0172 8.75237 15.7051 9.06116L9.25039 15.5158C8.93828 15.828 8.43359 15.828 8.12481 15.5158L7.3877 14.7787C7.07227 14.4633 7.07891 13.9487 7.40098 13.6399L11.402 9.82815H1.85938C1.41777 9.82815 1.0625 9.47288 1.0625 9.03127V7.96877C1.0625 7.52717 1.41777 7.1719 1.85938 7.1719H11.402L7.40098 3.36018C7.07559 3.05139 7.06895 2.53674 7.3877 2.22131Z" fill="black"/>
</svg>
