<svg width="22" height="22" viewBox="0 0 22 22" fill="none" xmlns="http://www.w3.org/2000/svg">
<path d="M21.0604 7.96944L14.5649 1.47395C12.5946 -0.491315 9.40544 -0.491315 7.43511 1.47395L0.939609 7.96944C0.335985 8.56984 -0.00235098 9.38677 1.22979e-05 10.2382V19.7513C0.00203183 20.9931 1.0087 21.9989 2.25046 21.9999H19.7496C20.9914 21.9989 21.998 20.9931 22 19.7513V10.2382C22.0024 9.38677 21.6641 8.56984 21.0604 7.96944ZM19.25 19.2499H14.6667V16.3331C14.6667 14.4002 13.0998 12.8332 11.1669 12.8332H10.8332C8.9003 12.8332 7.33336 14.4002 7.33336 16.3331V19.2499H2.75001V10.2382C2.75031 10.1166 2.79835 10.0001 2.88386 9.91369L9.37936 3.41819C10.2742 2.52311 11.7252 2.52294 12.6203 3.41776C12.6204 3.41789 12.6206 3.41807 12.6207 3.41819L19.1162 9.91369C19.2017 10.0001 19.2497 10.1166 19.25 10.2382V19.2499H19.25Z" fill="#5C5C5C"/>
</svg>
