<svg width="28" height="28" viewBox="0 0 28 28" fill="none" xmlns="http://www.w3.org/2000/svg">
<g clip-path="url(#clip0_1_28)">
<path d="M22.1667 10.5H10.5C9.21133 10.5 8.16666 11.5447 8.16666 12.8333V19.8333C8.16666 21.122 9.21133 22.1667 10.5 22.1667H22.1667C23.4553 22.1667 24.5 21.122 24.5 19.8333V12.8333C24.5 11.5447 23.4553 10.5 22.1667 10.5Z" stroke="#5C5C5C" stroke-width="2.75" stroke-linecap="round" stroke-linejoin="round"/>
<path d="M16.3333 18.6667C17.622 18.6667 18.6667 17.622 18.6667 16.3333C18.6667 15.0447 17.622 14 16.3333 14C15.0447 14 14 15.0447 14 16.3333C14 17.622 15.0447 18.6667 16.3333 18.6667Z" stroke="#5C5C5C" stroke-width="2.75" stroke-linecap="round" stroke-linejoin="round"/>
<path d="M19.8333 10.5V8.16665C19.8333 7.54781 19.5875 6.95432 19.1499 6.51673C18.7123 6.07915 18.1188 5.83331 17.5 5.83331H5.83333C5.21449 5.83331 4.621 6.07915 4.18342 6.51673C3.74583 6.95432 3.5 7.54781 3.5 8.16665V15.1666C3.5 15.7855 3.74583 16.379 4.18342 16.8166C4.621 17.2541 5.21449 17.5 5.83333 17.5H8.16667" stroke="#5C5C5C" stroke-width="2.75" stroke-linecap="round" stroke-linejoin="round"/>
</g>
<defs>
<clipPath id="clip0_1_28">
<rect width="28" height="28" fill="white"/>
</clipPath>
</defs>
</svg>
