<svg width="20" height="20" viewBox="0 0 20 20" fill="none" xmlns="http://www.w3.org/2000/svg">
<g clip-path="url(#clip0_106_40)">
<path d="M14.5833 1.59711C13.645 1.6117 12.7271 1.87365 11.9223 2.3565C11.1176 2.83935 10.4545 3.526 10 4.34711C9.54554 3.526 8.88245 2.83935 8.0777 2.3565C7.27296 1.87365 6.35505 1.6117 5.41667 1.59711C3.92079 1.6621 2.51143 2.31649 1.49649 3.4173C0.481556 4.51812 -0.0564528 5.97588 5.93206e-06 7.47211C5.93206e-06 11.2613 3.98834 15.3996 7.33334 18.2054C8.08019 18.833 9.02447 19.1771 10 19.1771C10.9755 19.1771 11.9198 18.833 12.6667 18.2054C16.0117 15.3996 20 11.2613 20 7.47211C20.0565 5.97588 19.5185 4.51812 18.5035 3.4173C17.4886 2.31649 16.0792 1.6621 14.5833 1.59711Z" fill="#009393"/>
</g>
<defs>
<clipPath id="clip0_106_40">
<rect width="20" height="20" fill="white"/>
</clipPath>
</defs>
</svg>
