<svg width="22" height="22" viewBox="0 0 22 22" fill="none" xmlns="http://www.w3.org/2000/svg">
<g clip-path="url(#clip0_1_39)">
<path d="M6.41658 22.0006C7.4291 22.0006 8.24991 21.1798 8.24991 20.1673C8.24991 19.1547 7.4291 18.3339 6.41658 18.3339C5.40406 18.3339 4.58325 19.1547 4.58325 20.1673C4.58325 21.1798 5.40406 22.0006 6.41658 22.0006Z" fill="#5C5C5C"/>
<path d="M15.5833 22.0006C16.5959 22.0006 17.4167 21.1798 17.4167 20.1673C17.4167 19.1547 16.5959 18.3339 15.5833 18.3339C14.5708 18.3339 13.75 19.1547 13.75 20.1673C13.75 21.1798 14.5708 22.0006 15.5833 22.0006Z" fill="#5C5C5C"/>
<path d="M21.0687 5.5165C20.4234 4.89949 19.5596 4.56385 18.667 4.58333H5.18283L4.94175 2.69317C4.85421 1.9513 4.49751 1.26734 3.93928 0.770951C3.38105 0.274559 2.66009 0.000240054 1.91308 0L1.375 0C1.01033 0 0.660591 0.144866 0.402728 0.402728C0.144866 0.660591 0 1.01033 0 1.375H0C0 1.73967 0.144866 2.08941 0.402728 2.34727C0.660591 2.60513 1.01033 2.75 1.375 2.75H1.91308C1.98807 2.7508 2.06011 2.77935 2.11529 2.83013C2.17048 2.88092 2.2049 2.95034 2.21192 3.025L3.58692 13.8041C3.67364 14.5465 4.03001 15.2313 4.58834 15.7283C5.14668 16.2252 5.86809 16.4999 6.61558 16.5H15.8941C16.9978 16.4994 18.0708 16.1365 18.9485 15.4672C19.8261 14.7979 20.4598 13.8591 20.7524 12.7948L21.8946 8.64142C22.0468 8.09413 22.0506 7.51616 21.9054 6.96695C21.7603 6.41773 21.4715 5.91709 21.0687 5.5165ZM18.1042 12.0661C17.97 12.5495 17.6813 12.9757 17.2823 13.2797C16.8833 13.5837 16.3957 13.7489 15.8941 13.75H6.61558C6.54063 13.7494 6.4686 13.7209 6.41352 13.67C6.35844 13.6192 6.32427 13.5497 6.31767 13.475L5.53392 7.33333H18.8045C18.8753 7.3328 18.9453 7.34868 19.0089 7.37973C19.0725 7.41077 19.1281 7.45613 19.1713 7.51226C19.2144 7.56838 19.244 7.63375 19.2577 7.70322C19.2713 7.77269 19.2687 7.84438 19.25 7.91267L18.1042 12.0661Z" fill="#5C5C5C"/>
</g>
<defs>
<clipPath id="clip0_1_39">
<rect width="22" height="22" fill="white"/>
</clipPath>
</defs>
</svg>
