<svg width="20" height="20" viewBox="0 0 20 20" fill="none" xmlns="http://www.w3.org/2000/svg">
<path d="M19.6334 17.871L15.7624 13.9984C18.6589 10.1278 17.8691 4.64196 13.9984 1.74552C10.1278 -1.15092 4.64196 -0.361157 1.74552 3.50949C-1.15092 7.38015 -0.361157 12.866 3.50949 15.7624C6.61872 18.0891 10.8892 18.0891 13.9984 15.7624L17.871 19.635C18.3577 20.1217 19.1467 20.1217 19.6333 19.635C20.12 19.1484 20.12 18.3593 19.6333 17.8727L19.6334 17.871ZM8.78624 15.015C5.34619 15.015 2.55751 12.2263 2.55751 8.78624C2.55751 5.34619 5.34619 2.55751 8.78624 2.55751C12.2263 2.55751 15.015 5.34619 15.015 8.78624C15.0113 12.2247 12.2248 15.0113 8.78624 15.015Z" fill="#5C5C5C"/>
</svg>
