<svg width="20" height="20" viewBox="0 0 20 20" fill="none" xmlns="http://www.w3.org/2000/svg">
<g clip-path="url(#clip0_110_55)">
<path d="M8.91667 2.18779C8.68235 1.68958 8.31108 1.26833 7.84626 0.97328C7.38143 0.678226 6.84223 0.521545 6.29167 0.521545C5.7411 0.521545 5.2019 0.678226 4.73708 0.97328C4.27225 1.26833 3.90099 1.68958 3.66667 2.18779H1.25C0.918479 2.18779 0.600537 2.31949 0.366116 2.55391C0.131696 2.78833 0 3.10627 0 3.43779H0C0 3.76931 0.131696 4.08725 0.366116 4.32167C0.600537 4.55609 0.918479 4.68779 1.25 4.68779H3.6625C3.89682 5.186 4.26808 5.60725 4.73291 5.9023C5.19774 6.19736 5.73693 6.35404 6.2875 6.35404C6.83807 6.35404 7.37726 6.19736 7.84209 5.9023C8.30692 5.60725 8.67818 5.186 8.9125 4.68779H18.75C19.0815 4.68779 19.3995 4.55609 19.6339 4.32167C19.8683 4.08725 20 3.76931 20 3.43779C20 3.10627 19.8683 2.78833 19.6339 2.55391C19.3995 2.31949 19.0815 2.18779 18.75 2.18779H8.91667Z" fill="#5C5C5C"/>
<path d="M13.7125 7.08282C13.162 7.0838 12.623 7.24092 12.1582 7.53594C11.6935 7.83095 11.3219 8.25176 11.0867 8.74949H1.25C0.918479 8.74949 0.600537 8.88119 0.366116 9.11561C0.131696 9.35003 0 9.66797 0 9.99949H0C0 10.331 0.131696 10.649 0.366116 10.8834C0.600537 11.1178 0.918479 11.2495 1.25 11.2495H11.0833C11.3177 11.7477 11.6889 12.1689 12.1537 12.464C12.6186 12.7591 13.1578 12.9157 13.7083 12.9157C14.2589 12.9157 14.7981 12.7591 15.2629 12.464C15.7278 12.1689 16.099 11.7477 16.3333 11.2495H18.75C19.0815 11.2495 19.3995 11.1178 19.6339 10.8834C19.8683 10.649 20 10.331 20 9.99949C20 9.66797 19.8683 9.35003 19.6339 9.11561C19.3995 8.88119 19.0815 8.74949 18.75 8.74949H16.3375C16.1023 8.25188 15.7309 7.83116 15.2663 7.53616C14.8016 7.24115 14.2629 7.08396 13.7125 7.08282Z" fill="#5C5C5C"/>
<path d="M6.2875 13.6453C5.73713 13.6465 5.19836 13.8037 4.73373 14.0987C4.2691 14.3937 3.89765 14.8144 3.6625 15.312H1.25C0.918479 15.312 0.600537 15.4437 0.366116 15.6781C0.131696 15.9125 0 16.2305 0 16.562H0C0 16.8935 0.131696 17.2114 0.366116 17.4459C0.600537 17.6803 0.918479 17.812 1.25 17.812H3.6625C3.89682 18.3102 4.26808 18.7314 4.73291 19.0265C5.19774 19.3215 5.73693 19.4782 6.2875 19.4782C6.83807 19.4782 7.37726 19.3215 7.84209 19.0265C8.30692 18.7314 8.67818 18.3102 8.9125 17.812H18.75C19.0815 17.812 19.3995 17.6803 19.6339 17.4459C19.8683 17.2114 20 16.8935 20 16.562C20 16.2305 19.8683 15.9125 19.6339 15.6781C19.3995 15.4437 19.0815 15.312 18.75 15.312H8.91667C8.68121 14.8137 8.30912 14.3926 7.84368 14.0975C7.37823 13.8025 6.83858 13.6457 6.2875 13.6453Z" fill="#5C5C5C"/>
</g>
<defs>
<clipPath id="clip0_110_55">
<rect width="20" height="20" fill="white"/>
</clipPath>
</defs>
</svg>
