<svg width="22" height="22" viewBox="0 0 22 22" fill="none" xmlns="http://www.w3.org/2000/svg">
<g clip-path="url(#clip0_1_49)">
<path d="M19.25 22.0005H16.5V17.4172C16.5 16.931 16.3068 16.4647 15.963 16.1208C15.6192 15.777 15.1529 15.5839 14.6667 15.5839H7.33333C6.8471 15.5839 6.38079 15.777 6.03697 16.1208C5.69315 16.4647 5.5 16.931 5.5 17.4172V22.0005H2.75V17.4172C2.75146 16.2021 3.23481 15.0371 4.09403 14.1779C4.95326 13.3187 6.1182 12.8353 7.33333 12.8339H14.6667C15.8818 12.8353 17.0467 13.3187 17.906 14.1779C18.7652 15.0371 19.2485 16.2021 19.25 17.4172V22.0005Z" fill="#5C5C5C"/>
<path d="M11 10.9999C9.91224 10.9999 8.84887 10.6774 7.9444 10.073C7.03993 9.46868 6.33498 8.60969 5.9187 7.6047C5.50241 6.59971 5.3935 5.49384 5.60571 4.42695C5.81793 3.36005 6.34176 2.38004 7.11095 1.61085C7.88013 0.841665 8.86014 0.317841 9.92704 0.105622C10.9939 -0.106596 12.0998 0.00232204 13.1048 0.418604C14.1098 0.834886 14.9688 1.53983 15.5731 2.44431C16.1775 3.34878 16.5 4.41214 16.5 5.49994C16.4986 6.95819 15.9186 8.35629 14.8875 9.38742C13.8564 10.4186 12.4583 10.9985 11 10.9999ZM11 2.74994C10.4561 2.74994 9.92445 2.91123 9.47221 3.2134C9.01998 3.51557 8.66751 3.94507 8.45936 4.44756C8.25122 4.95006 8.19676 5.50299 8.30287 6.03644C8.40898 6.56989 8.67089 7.05989 9.05549 7.44449C9.44008 7.82908 9.93009 8.09099 10.4635 8.1971C10.997 8.30321 11.5499 8.24875 12.0524 8.04061C12.5549 7.83247 12.9844 7.48 13.2866 7.02776C13.5887 6.57552 13.75 6.04384 13.75 5.49994C13.75 4.7706 13.4603 4.07112 12.9446 3.5554C12.4289 3.03967 11.7294 2.74994 11 2.74994Z" fill="#5C5C5C"/>
</g>
<defs>
<clipPath id="clip0_1_49">
<rect width="22" height="22" fill="white"/>
</clipPath>
</defs>
</svg>
