<svg width="22" height="22" viewBox="0 0 22 22" fill="none" xmlns="http://www.w3.org/2000/svg">
<g clip-path="url(#clip0_1_38)">
<path d="M15.8125 1.6965C14.8723 1.7056 13.9472 1.93478 13.1115 2.36569C12.2758 2.79659 11.5527 3.41725 11 4.17792C10.4473 3.41725 9.72411 2.79659 8.88841 2.36569C8.0527 1.93478 7.12768 1.7056 6.18747 1.6965C4.48409 1.76453 2.87694 2.50425 1.71745 3.75393C0.557955 5.00361 -0.0595468 6.66156 -3.18773e-05 8.36525C-3.18773e-05 12.5379 4.28447 17.0048 7.8833 20.0179C8.75719 20.7527 9.86233 21.1556 11.0041 21.1556C12.1459 21.1556 13.251 20.7527 14.1249 20.0179C17.7201 17.0048 22.0082 12.5379 22.0082 8.36525C22.0677 6.66018 21.4491 5.00102 20.2878 3.75111C19.1266 2.5012 17.5173 1.7624 15.8125 1.6965ZM12.3539 17.9105C11.9748 18.2297 11.4951 18.4047 10.9995 18.4047C10.5039 18.4047 10.0242 18.2297 9.64513 17.9105C5.26347 14.2365 2.74997 10.7578 2.74997 8.36525C2.69152 7.39103 3.01973 6.43308 3.66332 5.69939C4.30691 4.96569 5.21394 4.51548 6.18747 4.4465C7.161 4.51548 8.06803 4.96569 8.71162 5.69939C9.35521 6.43308 9.68341 7.39103 9.62497 8.36525C9.62497 8.72993 9.76983 9.07966 10.0277 9.33752C10.2856 9.59539 10.6353 9.74025 11 9.74025C11.3646 9.74025 11.7144 9.59539 11.9722 9.33752C12.2301 9.07966 12.375 8.72993 12.375 8.36525C12.3165 7.39103 12.6447 6.43308 13.2883 5.69939C13.9319 4.96569 14.8389 4.51548 15.8125 4.4465C16.786 4.51548 17.693 4.96569 18.3366 5.69939C18.9802 6.43308 19.3084 7.39103 19.25 8.36525C19.25 10.7578 16.7365 14.2365 12.3539 17.9105Z" fill="#5C5C5C"/>
</g>
<defs>
<clipPath id="clip0_1_38">
<rect width="22" height="22" fill="white"/>
</clipPath>
</defs>
</svg>
